<!DOCTYPE svg PUBLIC "-//W3C//DTD SVG 1.1//EN" "http://www.w3.org/Graphics/SVG/1.1/DTD/svg11.dtd">
<!-- Uploaded to: SVG Repo, www.svgrepo.com, Transformed by: SVG Repo Mixer Tools -->
<svg fill="#C43C2B" width="800px" height="800px" viewBox="0 0 20 20" xmlns="http://www.w3.org/2000/svg">
<g id="SVGRepo_bgCarrier" stroke-width="0"/>
<g id="SVGRepo_tracerCarrier" stroke-linecap="round" stroke-linejoin="round"/>
<g id="SVGRepo_iconCarrier">
<path d="M9.967 8.193L5 13h3v6h4v-6h3L9.967 8.193zM18 1H2C.9 1 0 1.9 0 3v12c0 1.1.9 2 2 2h4v-2H2V6h16v9h-4v2h4c1.1 0 2-.9 2-2V3c0-1.1-.9-2-2-2zM2.5 4.25a.75.75 0 1 1 0-1.5.75.75 0 0 1 0 1.5zm2 0a.75.75 0 1 1 0-1.5.75.75 0 0 1 0 1.5zM18 4H6V3h12.019L18 4z"/>
</g>
</svg>